<svg width="24" height="24" viewBox="0 0 24 24" fill="none" xmlns="http://www.w3.org/2000/svg">
<path fill-rule="evenodd" clip-rule="evenodd" d="M3.09467 3.09467C4.42914 1.7602 6.42603 1.25 9 1.25H15C17.574 1.25 19.5709 1.7602 20.9053 3.09467C22.2398 4.42914 22.75 6.42603 22.75 9V15C22.75 17.574 22.2398 19.5709 20.9053 20.9053C19.5709 22.2398 17.574 22.75 15 22.75H9C6.42603 22.75 4.42914 22.2398 3.09467 20.9053C1.7602 19.5709 1.25 17.574 1.25 15V9C1.25 6.42603 1.7602 4.42914 3.09467 3.09467ZM4.15533 4.15533C3.2398 5.07086 2.75 6.57397 2.75 9V15C2.75 17.426 3.2398 18.9291 4.15533 19.8447C5.07086 20.7602 6.57397 21.25 9 21.25H15C17.426 21.25 18.9291 20.7602 19.8447 19.8447C20.7602 18.9291 21.25 17.426 21.25 15V9C21.25 6.57397 20.7602 5.07086 19.8447 4.15533C18.9291 3.2398 17.426 2.75 15 2.75H9C6.57397 2.75 5.07086 3.2398 4.15533 4.15533Z" fill="white"/>
<path fill-rule="evenodd" clip-rule="evenodd" d="M17.1295 8.91722C17.4569 9.17099 17.5165 9.6421 17.2628 9.96948L14.9483 12.9552C14.3535 13.7075 13.2566 13.8447 12.4914 13.2534L12.4862 13.2494L10.6596 11.8121C10.5468 11.7264 10.3894 11.7477 10.3037 11.8582C10.3036 11.8583 10.3038 11.8581 10.3037 11.8582L7.92418 14.9476C7.67142 15.2758 7.2005 15.3369 6.87234 15.0842C6.54418 14.8314 6.48306 14.3605 6.73581 14.0323L9.11653 10.9414C9.71044 10.1728 10.8116 10.0339 11.5786 10.6265L11.5838 10.6306L13.4104 12.0679C13.5244 12.1545 13.6851 12.1322 13.7702 12.0267L16.0772 9.05049C16.331 8.72312 16.8021 8.66345 17.1295 8.91722Z" fill="white"/>
</svg>
