<svg width="24" height="24" viewBox="0 0 24 24" fill="none" xmlns="http://www.w3.org/2000/svg">
<path d="M17.79 22.74H6.21C3.47 22.74 1.25 20.51 1.25 17.77V10.36C1.25 8.99999 2.09 7.28999 3.17 6.44999L8.56 2.24999C10.18 0.989995 12.77 0.929995 14.45 2.10999L20.63 6.43999C21.82 7.26999 22.75 9.05 22.75 10.5V17.78C22.75 20.51 20.53 22.74 17.79 22.74ZM9.48 3.42999L4.09 7.62999C3.38 8.18999 2.75 9.46 2.75 10.36V17.77C2.75 19.68 4.3 21.24 6.21 21.24H17.79C19.7 21.24 21.25 19.69 21.25 17.78V10.5C21.25 9.54 20.56 8.20999 19.77 7.66999L13.59 3.33999C12.45 2.53999 10.57 2.57999 9.48 3.42999Z" fill="black"/>
<path d="M12 18.4271C9.28207 18.4271 7.07291 16.2179 7.07291 13.5C7.07291 10.7821 9.28207 8.57291 12 8.57291C14.7179 8.57291 16.9271 10.7821 16.9271 13.5C16.9271 16.2179 14.7179 18.4271 12 18.4271ZM12 9.26041C9.66249 9.26041 7.76041 11.1625 7.76041 13.5C7.76041 15.8375 9.66249 17.7396 12 17.7396C14.3375 17.7396 16.2396 15.8375 16.2396 13.5C16.2396 11.1625 14.3375 9.26041 12 9.26041Z" fill="black"/>
<path d="M10.625 17.9688H10.1667C9.97874 17.9688 9.8229 17.8129 9.8229 17.625C9.8229 17.4371 9.96957 17.2858 10.1575 17.2812C9.4379 14.8246 9.4379 12.1754 10.1575 9.71875C9.96957 9.71417 9.8229 9.56292 9.8229 9.375C9.8229 9.18708 9.97874 9.03125 10.1667 9.03125H10.625C10.735 9.03125 10.8404 9.08625 10.9046 9.17333C10.9687 9.265 10.9871 9.37958 10.9504 9.485C10.0887 12.0746 10.0887 14.9254 10.9504 17.5196C10.9871 17.625 10.9687 17.7396 10.9046 17.8313C10.8404 17.9138 10.735 17.9688 10.625 17.9688Z" fill="black"/>
<path d="M13.375 17.9688C13.3383 17.9688 13.3017 17.9642 13.265 17.9504C13.0863 17.8908 12.9854 17.6938 13.0496 17.515C13.9113 14.9254 13.9113 12.0746 13.0496 9.48043C12.99 9.30168 13.0863 9.10459 13.265 9.04501C13.4483 8.98543 13.6408 9.08168 13.7004 9.26043C14.6125 11.9921 14.6125 14.9988 13.7004 17.7258C13.6546 17.8771 13.5171 17.9688 13.375 17.9688Z" fill="black"/>
<path d="M12 15.8833C10.7213 15.8833 9.44708 15.7046 8.21875 15.3425C8.21417 15.5258 8.06292 15.6771 7.875 15.6771C7.68708 15.6771 7.53125 15.5212 7.53125 15.3333V14.875C7.53125 14.765 7.58625 14.6596 7.67333 14.5954C7.765 14.5312 7.87958 14.5129 7.985 14.5496C10.5746 15.4112 13.43 15.4112 16.0196 14.5496C16.125 14.5129 16.2396 14.5312 16.3313 14.5954C16.4229 14.6596 16.4733 14.765 16.4733 14.875V15.3333C16.4733 15.5212 16.3175 15.6771 16.1296 15.6771C15.9417 15.6771 15.7904 15.5304 15.7858 15.3425C14.5529 15.7046 13.2787 15.8833 12 15.8833Z" fill="black"/>
<path d="M16.125 12.4687C16.0883 12.4687 16.0517 12.4642 16.015 12.4504C13.4254 11.5887 10.57 11.5887 7.98043 12.4504C7.7971 12.51 7.6046 12.4137 7.54501 12.235C7.49001 12.0517 7.58626 11.8592 7.76501 11.7996C10.4967 10.8875 13.5033 10.8875 16.2304 11.7996C16.4092 11.8592 16.51 12.0562 16.4458 12.235C16.4046 12.3771 16.2671 12.4687 16.125 12.4687Z" fill="black"/>
</svg>
