<svg width="24" height="24" viewBox="0 0 24 24" fill="none" xmlns="http://www.w3.org/2000/svg">
<path d="M15 12.95H8C7.59 12.95 7.25 12.61 7.25 12.2C7.25 11.79 7.59 11.45 8 11.45H15C15.41 11.45 15.75 11.79 15.75 12.2C15.75 12.61 15.41 12.95 15 12.95Z" fill="#292D32"/>
<path d="M12.38 16.95H8C7.59 16.95 7.25 16.61 7.25 16.2C7.25 15.79 7.59 15.45 8 15.45H12.38C12.79 15.45 13.13 15.79 13.13 16.2C13.13 16.61 12.79 16.95 12.38 16.95Z" fill="#292D32"/>
<path d="M14 6.75H10C9.04 6.75 7.25 6.75 7.25 4C7.25 1.25 9.04 1.25 10 1.25H14C14.96 1.25 16.75 1.25 16.75 4C16.75 4.96 16.75 6.75 14 6.75ZM10 2.75C9.01 2.75 8.75 2.75 8.75 4C8.75 5.25 9.01 5.25 10 5.25H14C15.25 5.25 15.25 4.99 15.25 4C15.25 2.75 14.99 2.75 14 2.75H10Z" fill="#292D32"/>
<path d="M20.25 13C20.25 13.4142 20.5858 13.75 21 13.75C21.4142 13.75 21.75 13.4142 21.75 13H20.25ZM16 4.75H16.5V3.25H16V4.75ZM20.25 8.5V13H21.75V8.5H20.25ZM16.5 4.75C18.5711 4.75 20.25 6.42893 20.25 8.5H21.75C21.75 5.60051 19.3995 3.25 16.5 3.25V4.75Z" fill="#292D32"/>
<path d="M13 22.75C13.4142 22.75 13.75 22.4142 13.75 22C13.75 21.5858 13.4142 21.25 13 21.25V22.75ZM8 3.25H7.5V4.75H8V3.25ZM2.25 8.5V17.5H3.75V8.5H2.25ZM7.5 22.75H13V21.25H7.5V22.75ZM2.25 17.5C2.25 20.3995 4.6005 22.75 7.5 22.75V21.25C5.42893 21.25 3.75 19.5711 3.75 17.5H2.25ZM7.5 3.25C4.60051 3.25 2.25 5.60051 2.25 8.5H3.75C3.75 6.42893 5.42893 4.75 7.5 4.75V3.25Z" fill="#292D32"/>
<path d="M15.3977 22.3284C15.0177 22.3284 14.6577 22.1885 14.3977 21.9285C14.0877 21.6185 13.9477 21.1684 14.0177 20.6984L14.2077 19.3484C14.2577 18.9984 14.4677 18.5784 14.7177 18.3284L18.2577 14.7884C18.7377 14.3084 19.2077 14.0584 19.7177 14.0084C20.3477 13.9484 20.9577 14.2084 21.5377 14.7884C22.1477 15.3984 22.9677 16.6384 21.5377 18.0684L17.9977 21.6084C17.7477 21.8584 17.3277 22.0685 16.9777 22.1185L15.6277 22.3085C15.5477 22.3185 15.4777 22.3284 15.3977 22.3284ZM19.8877 15.4985C19.8777 15.4985 19.8677 15.4985 19.8577 15.4985C19.7177 15.5085 19.5277 15.6384 19.3177 15.8484L15.7777 19.3884C15.7477 19.4184 15.6977 19.5185 15.6977 19.5585L15.5177 20.8085L16.7677 20.6284C16.8077 20.6184 16.9077 20.5684 16.9377 20.5384L20.4777 16.9985C20.9177 16.5585 20.9777 16.3385 20.4777 15.8385C20.3177 15.6885 20.0877 15.4985 19.8877 15.4985Z" fill="#292D32"/>
<path d="M20.4977 18.7983C20.4277 18.7983 20.3577 18.7883 20.2977 18.7683C18.9777 18.3983 17.9277 17.3483 17.5577 16.0283C17.4477 15.6283 17.6777 15.2183 18.0777 15.0983C18.4777 14.9883 18.8877 15.2183 19.0077 15.6183C19.2377 16.4383 19.8877 17.0883 20.7077 17.3183C21.1077 17.4283 21.3377 17.8483 21.2277 18.2483C21.1277 18.5783 20.8277 18.7983 20.4977 18.7983Z" fill="#292D32"/>
</svg>
